#!OML:ASF F:\VICON\USERDATA\INSTALL\rory3\rory3.ASF
:FULLY-SPECIFIED
:DEGREES
437
root -1.66537 17.4439 9.43232 -182.187 3.20939 176.293
lowerback 13.0041 0.6372 -0.595803
upperback 0.84769 0.960689 1.03208
thorax -6.43201 0.557859 1.24327
lowerneck -17.0237 -5.83462 -11.1095
upperneck 37.0772 -3.55115 5.16858
head 16.6401 -1.21047 3.90636
rclavicle 7.65321e-015 1.82882e-014
rhumerus -34.2071 -21.1202 -66.5621
rradius 34.2485
rwrist 5.49087
rhand -15.997 7.75825
rfingers 7.12502
rthumb 10.2031 -21.9743
lclavicle 7.65321e-015 1.82882e-014
lhumerus -30.9584 4.82247 88.3024
lradius 36.9703
lwrist 0.217015
lhand -22.607 24.1647
lfingers 7.12502
lthumb 3.82259 54.1102
rfemur -3.62014 7.475 -1.46414
rtibia 25.1312
rfoot -13.3879 -0.898691
rtoes -24.2664
lfemur 3.41032 -3.6679 -9.53434
ltibia 14.4093
lfoot -7.88724 2.85226
ltoes -29.196
438
root -1.82089 17.4465 9.43762 -182.176 3.07494 175.707
lowerback 13.0617 0.634244 -1.06931
upperback 0.876574 0.876858 0.888511
thorax -6.43558 0.528001 1.3746
lowerneck -17.2865 -5.82037 -11.0859
upperneck 36.9997 -3.55828 5.17078
head 16.6629 -1.22325 3.89371
rclavicle 5.96354e-015 1.19271e-014
rhumerus -34.4232 -21.7886 -66.1799
rradius 34.3324
rwrist 6.28413
rhand -15.9757 8.42511
rfingers 7.12502
rthumb 10.2236 -21.3065
lclavicle 5.96354e-015 1.19271e-014
lhumerus -30.8183 4.36298 88.6826
lradius 37.1066
lwrist 0.967875
lhand -22.4637 24.0182
lfingers 7.12502
lthumb 3.96104 53.9612
rfemur -3.64933 7.76813 -2.54988
rtibia 25.0928
rfoot -12.5275 -1.54195
rtoes -23.9211
lfemur 3.12077 -3.27634 -10.8583
ltibia 14.7795
lfoot -8.38942 3.34971
ltoes -28.6551
439
root -1.97253 17.4497 9.44543 -182.075 2.96704 175.289
lowerback 12.979 0.640706 -1.39682
upperback 0.925779 0.832732 0.795247
thorax -6.3387 0.513696 1.47034
lowerneck -17.381 -5.78873 -11.0985
upperneck 36.7407 -3.57495 5.18625
head 16.5511 -1.2476 3.87969
rclavicle 8.15017e-015 -2.38542e-015
rhumerus -34.4795 -22.3542 -65.9657
rradius 34.3629
rwrist 6.34968
rhand -16.7 9.531
rfingers 7.12502
rthumb 9.52482 -20.2337
lclavicle 8.15017e-015 -2.38542e-015
lhumerus -30.6002 3.92712 89.074
lradius 37.2338
lwrist 1.49196
lhand -22.1633 24.2703
lfingers 7.12502
lthumb 4.25113 54.2076
rfemur -3.75664 8.14605 -3.38083
rtibia 25.0933
rfoot -11.6069 -2.51704
rtoes -22.8986
lfemur 2.76186 -2.84517 -11.9808
ltibia 15.1015
lfoot -8.81715 3.82528
ltoes -27.6505
440
root -2.11938 17.467 9.45074 -181.95 2.78004 175.146
lowerback 12.7859 0.562903 -1.50784
upperback 1.02439 0.720593 0.799175
thorax -6.12341 0.461427 1.55911
lowerneck -17.4776 -5.72039 -11.1359
upperneck 36.4419 -3.54024 5.2124
head 16.415 -1.2556 3.88185
rclavicle 1.59028e-015 -1.43125e-014
rhumerus -34.4087 -22.6828 -65.9059
rradius 34.4821
rwrist 6.28894
rhand -16.9591 9.62935
rfingers 7.12502
rthumb 9.27477 -20.1466
lclavicle 1.59028e-015 -1.43125e-014
lhumerus -30.3358 3.56711 89.408
lradius 37.3502
lwrist 1.9277
lhand -21.8266 25.472
lfingers 7.12502
lthumb 4.5762 55.4026
rfemur -3.84221 8.53218 -3.79426
rtibia 25.1435
rfoot -10.6535 -3.80034
rtoes -21.5379
lfemur 2.37273 -2.4895 -12.7956
ltibia 15.3624
lfoot -9.16857 4.26684
ltoes -25.9247
441
root -2.26217 17.4864 9.45572 -181.918 2.47802 174.938
lowerback 12.7089 0.455365 -1.69131
upperback 1.08489 0.555892 0.789656
thorax -6.01133 0.385458 1.68262
lowerneck -17.454 -5.68641 -11.2714
upperneck 36.2585 -3.52093 5.30844
head 16.319 -1.26322 3.9393
rclavicle -1.47101e-014 -3.89618e-014
rhumerus -34.5675 -22.8689 -65.8157
rradius 34.7088
rwrist 6.129
rhand -17.0144 9.71807
rfingers 7.12502
rthumb 9.22148 -20.0603
lclavicle -1.47101e-014 -3.89618e-014
lhumerus -30.2428 3.07202 89.7674
lradius 37.51
lwrist 2.51465
lhand -21.9323 26.3735
lfingers 7.12502
lthumb 4.47417 56.3063
rfemur -3.77362 9.12015 -4.15157
rtibia 25.2408
rfoot -9.653 -5.51679
rtoes -19.9267
lfemur 2.08331 -2.35638 -13.671
ltibia 15.5687
lfoot -9.363 4.78738
ltoes -25.607
442
root -2.39764 17.5062 9.46015 -181.877 2.32963 174.894
lowerback 12.7059 0.458188 -1.7693
upperback 1.05199 0.548028 0.815149
thorax -6.04515 0.383631 1.75508
lowerneck -17.2045 -5.70913 -11.4508
upperneck 36.0966 -3.60957 5.51751
head 16.1976 -1.29539 4.03853
rclavicle 3.18055e-015 1.51076e-014
rhumerus -34.9765 -23.2767 -65.5462
rradius 34.8646
rwrist 5.96189
rhand -16.8879 10.1017
rfingers 7.12502
rthumb 9.34347 -19.6712
lclavicle 3.18055e-015 1.51076e-014
lhumerus -30.3193 2.32414 90.191
lradius 37.5904
lwrist 3.03902
lhand -22.5593 26.1583
lfingers 7.12502
lthumb 3.86872 56.1029
rfemur -3.79511 9.86311 -4.23413
rtibia 25.3714
rfoot -8.53297 -7.40157
rtoes -17.3135
lfemur 1.88121 -2.19505 -14.2866
ltibia 15.7208
lfoot -9.57886 5.07824
ltoes -25.2782
443
root -2.52846 17.5252 9.46238 -181.808 2.18209 174.935
lowerback 12.6288 0.466334 -1.83241
upperback 1.05717 0.556339 0.896535
thorax -5.99846 0.389861 1.87541
lowerneck -17.2555 -5.72508 -11.4703
upperneck 36.0743 -3.63062 5.52603
head 16.2022 -1.30721 4.04012
rclavicle -1.19271e-015 -3.57812e-014
rhumerus -35.2189 -23.5373 -65.3954
rradius 34.9934
rwrist 5.66034
rhand -16.9128 9.86684
rfingers 7.12502
rthumb 9.31947 -19.9072
lclavicle -1.19271e-015 -3.57812e-014
lhumerus -30.3483 1.63099 90.6277
lradius 37.6349
lwrist 3.31934
lhand -22.937 25.8706
lfingers 7.12502
lthumb 3.5039 55.8216
rfemur -3.87483 10.4213 -4.16591
rtibia 25.5951
rfoot -7.48472 -9.29063
rtoes -13.7494
lfemur 1.67925 -2.21783 -14.7431
ltibia 15.8788
lfoot -9.76922 5.11408
ltoes -24.7228
444
root -2.65382 17.5479 9.46667 -181.763 1.86472 175.167
lowerback 12.5634 0.362492 -1.76881
upperback 1.13623 0.446985 1.06978
thorax -5.87416 0.337981 2.04111
lowerneck -17.4252 -5.66114 -11.4538
upperneck 35.9838 -3.52449 5.4475
head 16.1811 -1.28146 4.01426
rclavicle 1.39149e-015 -9.54166e-015
rhumerus -35.2103 -23.5786 -65.4057
rradius 35.0901
rwrist 5.34662
rhand -16.9396 9.46986
rfingers 7.12502
rthumb 9.29359 -20.3053
lclavicle 1.39149e-015 -9.54166e-015
lhumerus -30.2592 0.996131 91.0234
lradius 37.7614
lwrist 3.557
lhand -22.6333 25.9111
lfingers 7.12502
lthumb 3.7972 55.8571
rfemur -3.87093 10.9389 -3.73246
rtibia 25.9751
rfoot -6.7371 -11.4928
rtoes -9.06852
lfemur 1.42433 -2.55083 -14.9035
ltibia 16.129
lfoot -10.0471 4.78082
ltoes -22.1445
445
root -2.76761 17.571 9.47785 -181.702 1.52843 175.326
lowerback 12.5782 0.273833 -1.86416
upperback 1.13788 0.327622 1.2136
thorax -5.87611 0.28478 2.26755
lowerneck -17.1315 -5.57963 -11.5476
upperneck 35.6521 -3.45721 5.47995
head 15.9377 -1.26908 4.0365
rclavicle 1.68967e-015 -1.35174e-014
rhumerus -35.3728 -23.5932 -65.4134
rradius 35.2336
rwrist 5.13378
rhand -16.6651 8.98798
rfingers 7.12502
rthumb 9.55849 -20.7752
lclavicle 1.68967e-015 -1.35174e-014
lhumerus -30.2203 0.324288 91.3775
lradius 37.7729
lwrist 3.64393
lhand -22.6584 25.7129
lfingers 7.12502
lthumb 3.77299 55.6592
rfemur -4.00396 11.4974 -3.24769
rtibia 26.5836
rfoot -6.35976 -13.721
rtoes -3.87882
lfemur 1.04402 -2.91025 -15.055
ltibia 16.4183
lfoot -10.2867 4.23546
ltoes -18.3022
446
root -2.87475 17.5905 9.48842 -181.586 1.25379 175.333
lowerback 12.5332 0.23703 -2.15165
upperback 1.10138 0.241761 1.29293
thorax -5.88643 0.250238 2.52935
lowerneck -17.0005 -5.56439 -11.5149
upperneck 35.5881 -3.43913 5.42579
head 15.8698 -1.2631 4.00672
rclavicle 1.19271e-015 2.46493e-014
rhumerus -35.5513 -23.711 -65.406
rradius 35.2422
rwrist 5.13685
rhand -16.6316 8.41147
rfingers 7.12502
rthumb 9.5908 -21.3502
lclavicle 1.19271e-015 2.46493e-014
lhumerus -30.2824 -0.496877 91.7064
lradius 37.8652
lwrist 3.70073
lhand -22.9673 25.2103
lfingers 7.12502
lthumb 3.47464 55.1617
rfemur -4.35563 11.7283 -2.91294
rtibia 27.4428
rfoot -6.44172 -15.268
rtoes -0.00474272
lfemur 0.607114 -3.03117 -15.3517
ltibia 16.7161
lfoot -10.4398 3.68879
ltoes -16.4558
